# xmcd
# 
# Track frame offsets:
#     150
#     15097
#     32343
#     49884
#     65683
#     76253
#     96550
#     111394
#     130622
#     147904
#     162679
#     175463
#     186532
# 
# Disc length: 2731
# 
# Revision: 1
# Processed by: cddbd v1.5.2PL0 Copyright (c) Steve Scherf et al.
# Submitted via: fre:ac v1.0.17
# 
DISCID=b60aa90d
DTITLE=The Stance Brothers - Kind Soul
DYEAR=2007
DGENRE=Acid Jazz
TTITLE0=Steve McQueen
TTITLE1=Prayer
TTITLE2=Roll Call
TTITLE3=Dynamite
TTITLE4=Bright Moments
TTITLE5=Capricorn
TTITLE6=Garage Days
TTITLE7=Jay's Lament
TTITLE8=Upside The Head
TTITLE9=Cool Hand - Turmoil
TTITLE10=Mean Spirit
TTITLE11=Blow Back
TTITLE12=She May Be Moody
EXTD=YEAR: 2007
EXTT0=
EXTT1=
EXTT2=
EXTT3=
EXTT4=
EXTT5=
EXTT6=
EXTT7=
EXTT8=
EXTT9=
EXTT10=
EXTT11=
EXTT12=
PLAYORDER=
